<?xml version="1.0" encoding="UTF-8" standalone="no"?>
<!-- Created with Inkscape (http://www.inkscape.org/) -->

<svg
   width="500"
   height="200"
   viewBox="0 0 132.29166 52.916666"
   version="1.1"
   id="svg1"
   xml:space="preserve"
   xmlns="http://www.w3.org/2000/svg"
   xmlns:svg="http://www.w3.org/2000/svg"
   xmlns:rdf="http://www.w3.org/1999/02/22-rdf-syntax-ns#"
   xmlns:cc="http://creativecommons.org/ns#"
   xmlns:dc="http://purl.org/dc/elements/1.1/"><defs
     id="defs1"><rect
       x="198.48267"
       y="0"
       width="321.53085"
       height="87.551346"
       id="rect37" /></defs><metadata
     id="metadata1"><rdf:RDF><cc:Work
         rdf:about=""><dc:format>image/svg+xml</dc:format><dc:type
           rdf:resource="http://purl.org/dc/dcmitype/StillImage" /></cc:Work></rdf:RDF></metadata><g
     id="g1"
     transform="matrix(0.06512959,0,0,0.06512959,6.8792483,9.7851583)"><rect
       x="77.363998"
       y="101.977"
       transform="matrix(0.9063,-0.4226,0.4226,0.9063,-77.0283,82.304)"
       style="fill:#ffffff"
       width="139.506"
       height="225.814"
       id="rect1" /><g
       id="g3">
	
		<rect
   x="46.675999"
   y="134.336"
   transform="matrix(-0.9063,0.4226,-0.4226,-0.9063,180.4817,283.7283)"
   style="fill:#e6e6e6"
   width="24.231001"
   height="55.067001"
   id="rect2" />
	
		<rect
   x="122.742"
   y="316.82599"
   transform="matrix(0.4226,0.9063,-0.9063,0.4226,377.0499,66.0417)"
   style="fill:#e6e6e6"
   width="27.902"
   height="24.231001"
   id="rect3" />
</g><rect
       x="83.105003"
       y="155.774"
       transform="matrix(0.9063,-0.4226,0.4226,0.9063,-81.6929,85.8838)"
       style="fill:#ffda44"
       width="139.506"
       height="142.84"
       id="rect4" /><rect
       x="29.193001"
       y="239.44501"
       transform="matrix(0.4226,0.9063,-0.9063,0.4226,286.0854,54.063)"
       style="fill:#edc10c"
       width="142.84"
       height="24.231001"
       id="rect5" /><g
       id="g17">
	
		<rect
   x="189.983"
   y="197.57201"
   transform="matrix(0.9063,-0.4226,0.4226,0.9063,-67.5076,101.6413)"
   style="fill:#ffffff"
   width="11.014"
   height="11.013"
   id="rect6" />
	
		<rect
   x="104.89"
   y="246.17"
   transform="matrix(0.9063,-0.4226,0.4226,0.9063,-96.0174,70.233)"
   style="fill:#ffffff"
   width="11.013"
   height="11.013"
   id="rect7" />
	
		<rect
   x="145.595"
   y="231.15401"
   transform="rotate(-70.001229,151.10183,236.66096)"
   style="fill:#ffffff"
   width="11.015"
   height="11.014"
   id="rect8" />
	
		<rect
   x="126.804"
   y="277.35999"
   transform="rotate(-70.001229,132.31158,282.86764)"
   style="fill:#ffffff"
   width="11.015"
   height="11.015"
   id="rect9" />
	
		<rect
   x="211.463"
   y="249.052"
   transform="rotate(-70.001229,216.97024,254.55892)"
   style="fill:#ffffff"
   width="11.014"
   height="11.015"
   id="rect10" />
	
		<rect
   x="186.33"
   y="234.92"
   transform="matrix(-0.4226,-0.9063,0.9063,-0.4226,55.0062,515.8975)"
   style="fill:#ffffff"
   width="11.013"
   height="11.014"
   id="rect11" />
	
		<rect
   x="157.35699"
   y="273.54401"
   transform="matrix(-0.4226,-0.9063,0.9063,-0.4226,-21.2159,544.5854)"
   style="fill:#ffffff"
   width="11.013"
   height="11.013"
   id="rect12" />
	
		<rect
   x="173.785"
   y="164.619"
   transform="matrix(-0.9063,0.4226,-0.4226,-0.9063,413.683,248.5438)"
   style="fill:#ffffff"
   width="11.013"
   height="11.013"
   id="rect13" />
	
		<rect
   x="145.674"
   y="194.836"
   transform="rotate(109.99877,151.18131,200.34275)"
   style="fill:#ffffff"
   width="11.015"
   height="11.014"
   id="rect14" />
	
		<rect
   x="91.181"
   y="206.382"
   transform="matrix(0.4226,0.9063,-0.9063,0.4226,247.8647,34.7143)"
   style="fill:#ffffff"
   width="11.013"
   height="11.013"
   id="rect15" />
	
		<rect
   x="112.27"
   y="180.34599"
   transform="matrix(0.4226,0.9063,-0.9063,0.4226,236.4438,0.5679)"
   style="fill:#ffffff"
   width="11.013"
   height="11.013"
   id="rect16" />
	
		<rect
   x="295.129"
   y="184.19"
   transform="matrix(-0.9063,-0.4226,0.4226,-0.9063,570.0236,720.5612)"
   style="fill:#ffffff"
   width="139.506"
   height="225.814"
   id="rect17" />
</g><g
       id="g19">
	
		<rect
   x="361.32999"
   y="399.03101"
   transform="matrix(-0.4226,0.9063,-0.9063,-0.4226,906.504,244.7769)"
   style="fill:#e6e6e6"
   width="27.902"
   height="24.231001"
   id="rect18" />
	
		<rect
   x="425.67801"
   y="231.979"
   transform="matrix(0.4226,-0.9063,0.9063,0.4226,40.456,551.6899)"
   style="fill:#e6e6e6"
   width="55.067001"
   height="24.231001"
   id="rect19" />
</g><rect
       x="289.383"
       y="237.992"
       transform="matrix(-0.9063,-0.4226,0.4226,-0.9063,553.8666,741.6097)"
       style="fill:#ffda44"
       width="139.506"
       height="142.84"
       id="rect20" /><rect
       x="339.94101"
       y="321.66199"
       transform="matrix(-0.4226,0.9063,-0.9063,-0.4226,887.7116,102.0116)"
       style="fill:#edc10c"
       width="142.84"
       height="24.231001"
       id="rect21" /><g
       id="g32">
	
		<rect
   x="311.00601"
   y="279.789"
   transform="matrix(-0.9063,-0.4226,0.4226,-0.9063,482.8051,677.6238)"
   style="fill:#ffffff"
   width="11.014"
   height="11.013"
   id="rect22" />
	
		<rect
   x="396.10001"
   y="328.38501"
   transform="matrix(-0.9063,-0.4226,0.4226,-0.9063,624.4829,806.2245)"
   style="fill:#ffffff"
   width="11.013"
   height="11.013"
   id="rect23" />
	
		<rect
   x="355.379"
   y="313.37201"
   transform="rotate(-109.99877,360.88681,318.87858)"
   style="fill:#ffffff"
   width="11.015"
   height="11.014"
   id="rect24" />
	
		<rect
   x="374.16699"
   y="359.57101"
   transform="rotate(-109.99877,379.67388,365.07806)"
   style="fill:#ffffff"
   width="11.015"
   height="11.015"
   id="rect25" />
	
		<rect
   x="289.509"
   y="331.263"
   transform="rotate(-109.99877,295.01597,336.77049)"
   style="fill:#ffffff"
   width="11.014"
   height="11.015"
   id="rect26" />
	
		<rect
   x="314.65701"
   y="317.147"
   transform="matrix(0.4226,-0.9063,0.9063,0.4226,-107.5657,476.4675)"
   style="fill:#ffffff"
   width="11.013"
   height="11.014"
   id="rect27" />
	
		<rect
   x="343.63"
   y="355.78"
   transform="matrix(0.4226,-0.9063,0.9063,0.4226,-125.8494,525.0318)"
   style="fill:#ffffff"
   width="11.013"
   height="11.013"
   id="rect28" />
	
		<rect
   x="327.181"
   y="246.84599"
   transform="matrix(0.9063,0.4226,-0.4226,0.9063,137.8144,-116.954)"
   style="fill:#ffffff"
   width="11.013"
   height="11.013"
   id="rect29" />
	
		<rect
   x="355.31601"
   y="277.04401"
   transform="rotate(70.001229,360.82315,282.55078)"
   style="fill:#ffffff"
   width="11.014"
   height="11.014"
   id="rect30" />
	
		<rect
   x="409.784"
   y="288.60199"
   transform="matrix(-0.4226,0.9063,-0.9063,-0.4226,857.3503,42.0171)"
   style="fill:#ffffff"
   width="11.013"
   height="11.013"
   id="rect31" />
	
		<rect
   x="388.70401"
   y="262.55801"
   transform="matrix(-0.4226,0.9063,-0.9063,-0.4226,803.757,24.0718)"
   style="fill:#ffffff"
   width="11.013"
   height="11.013"
   id="rect32" />
</g><path
       d="M 166.383,72.728 25.824,138.271 127.843,357.05 268.403,291.507 Z M 236.075,259.043 123.754,311.42 69.969,196.078 182.29,143.702 Z M 158.848,93.431 175.706,129.582 63.385,181.958 46.527,145.807 Z m -23.47,242.917 -5.04,-10.809 112.321,-52.376 5.04,10.809 z"
       id="path32" /><polygon
       points="20.704,183.96 33.448,178.017 26.864,163.897 0,176.424 65.695,317.309 92.559,304.783 85.975,290.663 73.231,296.606 "
       id="polygon32" /><path
       d="M 345.609,154.948 243.59,373.728 384.15,439.272 486.17,220.493 Z m 7.536,20.703 112.321,52.376 -16.858,36.151 -112.321,-52.376 z m 88.878,102.647 -53.785,115.342 -112.32,-52.376 53.785,-115.342 z m -177.729,87.895 5.039,-10.808 112.32,52.376 -5.04,10.809 z"
       id="path33" /><polygon
       points="478.719,260.276 491.296,266.141 438.402,379.575 425.824,373.71 419.24,387.83 445.938,400.279 512,258.606 485.304,246.156 "
       id="polygon33" /><rect
       x="269.70901"
       y="88.780998"
       width="15.579"
       height="35.313"
       id="rect33" /><rect
       x="205.088"
       y="121.389"
       transform="matrix(-0.7071,-0.7071,0.7071,-0.7071,289.1103,378.1096)"
       width="35.551998"
       height="15.579"
       id="rect34" /><rect
       x="324.328"
       y="111.418"
       transform="matrix(-0.7071,-0.7071,0.7071,-0.7071,475.6093,455.3818)"
       width="15.579"
       height="35.541"
       id="rect35" /></g><text
     xml:space="preserve"
     transform="matrix(0.26458333,0,0,0.26458333,-7.2032501,17.070955)"
     id="text36"
     style="font-style:normal;font-variant:normal;font-weight:bold;font-stretch:normal;font-size:64px;font-family:'Open Sans';-inkscape-font-specification:'Open Sans, Bold';font-variant-ligatures:normal;font-variant-caps:normal;font-variant-numeric:normal;font-variant-east-asian:normal;letter-spacing:1.48px;text-orientation:sideways;white-space:pre;shape-inside:url(#rect37);opacity:1;fill:#ffd700;fill-opacity:1;stroke:none;stroke-width:1.00157;stroke-dasharray:none"><tspan
       x="198.48242"
       y="58.231624"
       id="tspan1">DeguApp</tspan></text></svg>
