<?xml version="1.0" encoding="UTF-8" standalone="no"?>
<svg
   xmlns:dc="http://purl.org/dc/elements/1.1/"
   xmlns:cc="http://creativecommons.org/ns#"
   xmlns:rdf="http://www.w3.org/1999/02/22-rdf-syntax-ns#"
   xmlns:svg="http://www.w3.org/2000/svg"
   xmlns="http://www.w3.org/2000/svg"
   viewBox="0 0 2666.6667 2666.6667"
   height="2666.6667"
   width="2666.6667"
   xml:space="preserve"
   id="svg2"
   version="1.1"><metadata
     id="metadata8"><rdf:RDF><cc:Work
         rdf:about=""><dc:format>image/svg+xml</dc:format><dc:type
           rdf:resource="http://purl.org/dc/dcmitype/StillImage" /></cc:Work></rdf:RDF></metadata><defs
     id="defs6"><clipPath
       id="clipPath28"
       clipPathUnits="userSpaceOnUse"><path
         id="path26"
         d="m 16823.6,10000 c 0,-3768.6 -3055,-6823.6 -6823.6,-6823.6 -3768.59,0 -6823.64,3055 -6823.64,6823.6 0,3768.6 3055.05,6823.6 6823.64,6823.6 3768.6,0 6823.6,-3055 6823.6,-6823.6 z" /></clipPath></defs><g
     transform="matrix(1.3333333,0,0,-1.3333333,0,2666.6667)"
     id="g10"><g
       transform="scale(0.1)"
       id="g12"><g
         transform="scale(1.22699)"
         id="g14"><path
           id="path16"
           style="fill:#ffffff;fill-opacity:1;fill-rule:nonzero;stroke:none"
           d="M 16300,0 H 0 V 16300 H 16300 V 0" /></g><g
         transform="scale(1.03213)"
         id="g18"><path
           id="path20"
           style="fill:#feedf1;fill-opacity:1;fill-rule:nonzero;stroke:none"
           d="m 16300,9688.75 c 0,-3651.3 -2960,-6611.21 -6611.25,-6611.21 -3651.29,0 -6611.26,2959.91 -6611.26,6611.21 C 3077.49,13340 6037.46,16300 9688.75,16300 13340,16300 16300,13340 16300,9688.75" /></g><g
         id="g22"><g
           clip-path="url(#clipPath28)"
           id="g24"><path
             id="path30"
             style="fill:#c3bfb6;fill-opacity:1;fill-rule:nonzero;stroke:none"
             d="m 12471.2,3176.4 c -1693.4,0 -3386.74,0 -5080.12,0 -0.37,9.1 3.3,16.1 10.97,21.1 29.48,15.1 61.53,12 92.87,12 1624.15,0.2 3248.28,0.2 4872.48,0 31.3,0 63.4,3.2 92.9,-11.9 7.7,-5 11.3,-12.1 10.9,-21.2" /><path
             id="path32"
             style="fill:#c3bfb6;fill-opacity:1;fill-rule:nonzero;stroke:none"
             d="m 5861.99,3176.4 c 0.31,67.7 -10.59,136.1 11.17,202.6 30.86,-33.5 15.92,-75.1 19.77,-113.4 2.95,-29.3 0.49,-61.8 45.59,-57.3 435.08,2.4 870.03,0.7 1304.98,0.9 25.12,0 50.64,0.7 73.9,-11.8 7.71,-4.9 11.19,-12 10.5,-21 -488.64,0 -977.27,0 -1465.91,0" /><path
             id="path34"
             style="fill:#c3bfb6;fill-opacity:1;fill-rule:nonzero;stroke:none"
             d="m 14138.2,3190.6 c 0.4,-4.7 0.8,-9.5 1.1,-14.2 -539.2,0 -1078.4,0 -1617.5,0 -0.7,9.1 2.9,16 10.6,20.9 23.2,12.6 48.6,11.9 73.7,11.9 484.9,0.3 969.8,0.5 1454.7,0 10.5,0 21,-0.5 31.4,-2.2 16.8,-1.2 33.2,-4 46,-16.4" /><path
             id="path36"
             style="fill:#aaa8a7;fill-opacity:1;fill-rule:nonzero;stroke:none"
             d="m 7327.9,3176.4 c 0.07,3.2 0.16,6.5 0.26,9.7 1.32,2.5 2.64,4.9 3.94,7.3 15.31,9.9 31.53,9.3 48.16,4.3 5.25,-2.4 8.68,-6.5 10.56,-11.9 0.17,-3.2 0.26,-6.3 0.26,-9.4 -21.06,0 -42.12,0 -63.18,0" /><path
             id="path38"
             style="fill:#a9a7a6;fill-opacity:1;fill-rule:nonzero;stroke:none"
             d="m 12521.5,3185.8 c 0.2,-3.1 0.2,-6.3 0.3,-9.4 -16.9,0 -33.7,0 -50.6,0 0,3 0,6.1 0.2,9.1 1,2.5 1.9,4.9 2.8,7.4 11.8,8.2 24.5,8.3 37.7,4.3 5,-2.3 8.1,-6.1 9.6,-11.4" /><path
             id="path40"
             style="fill:#110f0d;fill-opacity:1;fill-rule:nonzero;stroke:none"
             d="m 14138.2,3190.6 c -12.1,-0.1 -24.2,-0.3 -36.4,-0.4 -30.7,71.2 -23.9,148 -29.1,222.3 -6.2,88 -1.8,176.8 -1.4,265.2 1,269.3 -17.5,537.7 -35.8,806.3 -32.2,474.3 -90.4,946.1 -138.2,1418.8 -9.3,92 -10,185 -12.6,277.1 -6.5,233.9 -31.2,465.9 -56.2,697.8 -28.6,265.5 -51.5,532 -98.3,795.4 -53.2,299.1 -122.7,593.8 -237.7,876.1 -102.7,252.5 -264.8,458 -490.2,611.7 -239.7,163.4 -498.9,286.6 -771.3,386.6 -238,87.3 -488.6,128.1 -727.2,211.4 -41.9,14.7 -55.5,-8.3 -70.7,-39.7 -67,-139.2 -140.5,-277 -260.4,-376.8 -269.2,-223.9 -565.4,-393.2 -930.4,-381.8 -186.3,5.8 -365.97,57.5 -539.4,124.4 -230.32,88.9 -456.26,186.2 -636.19,364.9 -96.41,95.8 -178.21,201.6 -245.25,319.2 -14.92,26.2 -22.73,54.8 -5.61,84 8.75,12.7 25.34,16.7 34.2,29.5 -9.33,-9.4 -21.7,-14.3 -32.53,-21.7 C 8663.39,9798.3 8501.73,9754 8352.96,9679.5 8016.12,9511 7668.55,9364.9 7339.83,9178.8 6946.76,8956.4 6698.33,8623.7 6552.66,8205 6459.55,7937.3 6409.77,7659.9 6365.29,7380.9 6301,6977.7 6241.61,6573.7 6169.22,6171.6 c -32.34,-179.6 -30.9,-364.5 -59.75,-545.4 -64.01,-401.3 -86.05,-807.1 -130.13,-1210.5 -36.69,-335.9 -18.64,-672.8 -24.46,-1009.3 -1.25,-72.6 0.37,-146.7 -30.48,-215.7 -52.86,-1.3 -52.29,-1.3 -52.48,45.4 -0.2,47.6 7.31,95.2 1.24,142.9 6.93,170.4 11.01,340.9 8.88,511.5 -3.38,270 19.87,538.1 51.4,806 25.57,217.3 41.14,435.8 65.46,653.3 20.33,181.9 47.59,362.9 70.41,544.5 10.49,83.5 16.39,167.5 26.63,251 25.1,204.7 68.09,406.6 98.02,610.5 37.89,258 79.37,515.5 123.1,772.6 50.55,297.3 119.16,589.2 241.61,866.4 157.75,357.1 394.31,643.3 738.9,835.9 152.37,85.1 304.41,170.2 463.8,241.9 107.3,48.2 213.91,98.3 318.93,151.3 259.86,131.1 531.25,232.2 811.2,309.5 74.06,20.4 120.66,60.8 153.91,126 40.09,78.5 55.97,162.3 60.94,249.2 7.63,133.1 -11.05,264.3 -27,395.9 -11.25,92.9 -47.19,178.3 -69.57,267.7 -32.76,130.8 -47.21,264.9 -64.57,398.3 -4.29,33 -12.98,43.8 -49.85,44.7 -88.69,2.1 -153.84,50.7 -199.59,124.7 -26.74,43.2 -41.15,91.9 -53.53,140.9 -30.86,122.4 -57.79,245.6 -70.81,371.3 -3.02,29.1 -4.42,59.1 -1,88.1 10.78,91.3 47.31,142.1 134.21,192.7 -46.72,107.7 -93.65,215.4 -140.25,323.2 -69.71,161.4 -98.2,329.8 -85.68,505.1 5.11,71.6 19.78,141.6 39.12,210.4 35.79,127.4 76.84,253.5 109.18,381.7 39.07,155 133.93,253.3 283.39,302.7 187.63,61.9 373.33,129 549.97,218.3 109.34,55.2 223.37,95.8 340.99,129.3 130.72,37.2 257.34,33.1 382.84,-18 54.5,-22.2 109.7,-42.8 163.1,-67.2 139.6,-63.6 287.2,-93.5 438.4,-110.5 64.7,-7.3 129.5,-14.5 191.7,-36 95.5,-33 169.5,-91.4 218.5,-180.4 22.3,-40.5 44.8,-81 67.6,-121.2 29.6,-52.2 68.9,-95.5 120.8,-126.4 184.4,-109.5 259.3,-277.4 265.2,-485.5 5.9,-208.2 -40.6,-404.7 -120.3,-594.9 -44.6,-106.6 -95.9,-209.9 -162.4,-305.2 111.6,-55 147.3,-155.1 153.2,-262.1 11.1,-200.6 -37.7,-388 -157.7,-552.9 -27.4,-37.8 -60.9,-69.6 -99,-96.7 -45.8,-32.6 -94.6,-44.4 -149.1,-22.7 -15.6,-7.1 -15.7,-22.9 -19.1,-36.8 -4,-16.4 -6.3,-33.3 -12,-49 -56.6,-157 -60.1,-320.8 -63.9,-484.8 -3.8,-166.3 -9.9,-332.5 -14.4,-498.7 -2.5,-90.2 21.1,-175.2 57.4,-256.5 52.1,-117 144.9,-190.5 265.8,-224.9 181.7,-51.7 361.9,-107.6 545.6,-153.5 399.7,-99.6 779.1,-252.2 1125.4,-480 279,-183.6 470.6,-434.2 582.7,-747.9 109.4,-306 184.7,-620.3 229.6,-941.7 55.9,-400.1 98.7,-801.7 129.3,-1204.6 12.6,-165.7 17.4,-331.8 31,-497.6 16.5,-201.3 40.1,-402 58.2,-603.1 16.8,-186.5 40.5,-372.4 56.1,-558.9 38.5,-459.7 57.4,-920.3 54.2,-1381.6 -0.2,-37.9 -1.2,-75.8 -1.9,-113.7" /><path
             id="path42"
             style="fill:#473e2e;fill-opacity:1;fill-rule:nonzero;stroke:none"
             d="m 5924.4,3190.7 c 22.18,270.9 12.68,542.3 13.77,813.6 0.72,178.6 15.61,356.2 35.53,533.6 11.7,104.1 16.65,209 28.88,313.1 12.23,104.1 16.05,209 33.1,312.6 8.49,51.6 9.78,104.6 13.1,156.6 7.09,111.5 35.1,219.5 46.5,330 9.03,87.5 25.47,174.5 30.53,262.2 10.15,176.3 35.93,349.9 69.66,523 28.42,145.9 53.78,292.5 73.21,440.2 22.66,172.3 55.72,343.3 80.96,515.3 22.22,151.5 47.55,302.3 81.67,451.6 53.08,232.1 121.83,459 235.62,669.7 87.35,161.7 190.22,312.5 326.1,438.1 102.33,94.5 218.14,170.8 337.55,241.9 204.53,121.7 419.17,223.2 636.1,320.5 82.49,37 162.42,79.7 243.27,120.3 186.42,93.7 382.11,164.1 578.83,232.1 14.1,4.8 27.92,9.1 42.92,8.6 3.9,-2.8 5.17,-5.5 3.82,-8.3 -1.34,-2.7 -2.67,-4 -4.01,-4 -21.13,-31.2 -10.75,-60.6 6.27,-88.6 46.91,-77.4 97.19,-152.3 156.67,-220.8 157.81,-181.8 354.14,-305.6 575.98,-395.7 168,-68.3 338.67,-122.8 516.47,-159.6 193.9,-40.1 380.7,-19.1 562.6,50.1 159.8,60.8 306.7,147.3 444.2,249.2 99.7,73.8 175.5,168.7 239.2,273.7 39.2,64.6 79.8,129.1 101.7,202.2 7.3,24.1 17.9,22.4 36.7,16.3 79.9,-26.1 158.5,-59.7 240.5,-74.6 199.8,-36.3 389.8,-103.8 579.5,-171 284.9,-100.9 553.4,-236.5 794,-420.7 201.5,-154.3 342.9,-355.7 434.8,-592.3 98.5,-253.5 165.2,-515.5 214.5,-782.3 35,-189.8 59.8,-380.9 77.9,-573 12.3,-131.4 33.1,-261.9 46.6,-393.2 11.8,-114.8 17.8,-230.1 28.2,-345 15.4,-171.5 18.3,-343.7 26.5,-515.6 4.7,-98 22.4,-195.5 32.8,-293.3 10.4,-98 18.6,-196.3 28.7,-294.3 10.5,-102.2 21.8,-204.2 33.4,-306.2 5.7,-50 10.9,-100.4 14.1,-150.3 8.2,-127.7 23.6,-254.8 30.6,-382.8 8.7,-157.1 16.4,-314.4 26.3,-471.5 8,-126.2 9.1,-252.1 8.9,-378.1 -0.2,-151.5 7,-302.6 13.2,-453.8 -442.9,-0.4 -885.8,-0.7 -1328.6,-1.3 -83.9,-0.2 -167.8,-2 -251.7,-3.1 l 0.4,5.4 c -28.1,53 -5.4,107.3 -2,160.4 11.7,180.8 9.4,361.3 0.5,542.2 -8,163.5 -24.4,326.2 -10.6,491.4 13.8,165.1 9.9,331.9 -2.6,498.2 -17.2,230 -2.8,460 46.7,684.4 79.9,362.9 113.9,731.7 160,1099.1 11.2,89.6 6.8,180.6 11.2,270.9 7.5,151.3 20.4,302 30.6,453.1 -51,-452.6 -66.1,-908.6 -128.7,-1360.1 -22.6,-162.9 -64.7,-321.9 -95.3,-483.2 -26.3,-138.9 -42.8,-278.3 -41.6,-420.1 1.9,-246.3 6.8,-492.8 -1.2,-738.9 -8.2,-250.7 16.3,-499.5 23.8,-749.2 4.1,-138.2 -8.6,-277.3 -25.3,-415.2 -1.5,-12.8 -7,-24.1 -16.3,-33.4 l 0.3,-5.3 c -25.1,1.2 -50.3,3.3 -75.4,3.3 -1643.3,0.2 -3286.47,0.2 -4929.69,0.1 -25.16,0 -50.33,-2.1 -75.49,-3.1 l 0.39,5.4 c -18.66,22.7 -10.02,48.3 -6.62,72.7 62.4,448.2 128.12,896.5 157.97,1347.7 21.15,319.6 70.23,635.7 92.29,954.6 14.42,208.4 -5.69,416.2 -28.55,623.4 -37.81,342.7 -86.87,683.9 -136.66,1025 53.02,-376.8 96.7,-754.6 139.31,-1132.6 35.93,-318.8 10.08,-634.4 -38.84,-949.4 -28.8,-185.4 -34.52,-372.6 -46.96,-559.4 -11.6,-174.3 -36.77,-347.3 -61.08,-520.3 -36.64,-260.5 -55.08,-523.3 -100.86,-782.6 -5.12,-29 -5.44,-59.4 -33.27,-78.5 l 0.22,-5.7 c -25.11,1 -50.22,2.8 -75.33,2.8 -419.76,0.2 -839.51,0.1 -1259.27,0.2 -23.06,0 -46.11,1.1 -69.16,1.6" /><path
             id="path44"
             style="fill:#110f0d;fill-opacity:1;fill-rule:nonzero;stroke:none"
             d="m 7327.94,3191.8 c 16.77,107.6 34.53,215.1 50.03,322.9 18.79,130.7 27.64,262.6 47.22,393.3 17.07,114.1 28.04,229 42.24,343.4 10.84,87.4 23.75,174.5 33.43,261.9 8.56,77.3 10.31,155.3 13.29,232.7 6.15,159.9 27.96,317.4 50.12,475.3 32.45,231.2 57.31,463.6 38.85,697.2 -11.56,146.1 -24.98,292.3 -45.24,437.8 -21.97,157.8 -35.38,316.7 -54.48,474.9 -13.56,112.3 -31.73,224.1 -45.02,336.4 -4.61,39.1 -0.73,79.1 -0.73,125.1 32.12,-30.7 27.52,-68.6 32.68,-100.7 27.01,-167.6 51.78,-335.5 75.05,-503.7 15.79,-114.2 25.5,-229.3 42.1,-343.3 21.76,-149.6 34.81,-300.2 45.43,-450.5 9,-127.5 9.53,-256 -5.24,-384.4 -10.79,-93.6 -17.38,-187.9 -29.04,-281.6 -10.88,-87.4 -23.21,-174.6 -32.59,-262.1 -7.6,-70.9 -15.62,-142.1 -16.65,-213.3 -2.15,-149.4 -19.2,-297.2 -36.1,-445.3 -13.32,-116.7 -24.31,-233.6 -41.09,-349.9 -28.15,-195 -41.26,-391.9 -72.8,-586.6 -9.7,-59.9 -19.9,-119.9 -28.19,-180.1 -21.12,-3.3 -42.22,-3.5 -63.27,0.6" /><path
             id="path46"
             style="fill:#110f0d;fill-opacity:1;fill-rule:nonzero;stroke:none"
             d="m 12471.1,3190.8 c 7.6,119.3 15.6,238.6 22.5,358 2,33.5 3.1,67.4 0.6,100.9 -10.9,150.8 -15,302 -26.5,452.5 -5.8,76.2 2.1,150.5 2.3,225.7 0.4,260.9 1.9,521.9 -0.7,782.9 -1.8,173.3 22.4,343 56.8,511.9 26.8,131.4 57,262.3 79.2,394.4 15.6,92.9 19.7,187.6 30.1,281.4 9.7,87.5 21.3,174.7 31.2,262.2 7.1,62.4 18.2,125.1 17.9,187.6 -0.7,115.8 9.5,231 16.4,346.2 6.2,104.3 23.5,208.2 38.9,311.8 3.2,22.1 4.8,50.7 33.9,63.5 0,-49.8 5.6,-97.2 -1,-143 -21.4,-147.8 -18.5,-297.2 -33.4,-445.3 -4,-39.7 -1.9,-79.9 -2.1,-119.9 -0.6,-111.6 -18.5,-221.3 -33.4,-331.5 -11.3,-83 -23,-166.3 -28.4,-249.8 -9.8,-149.2 -39.4,-295 -68.6,-440.9 -33.7,-168.6 -65.4,-336.9 -76.1,-509.4 -6.7,-107.4 -13.2,-214.9 -5.3,-321.1 11.5,-155.7 5.2,-311 8.9,-466.5 1.1,-46.7 -10.1,-91.8 -11.1,-137.9 -3.5,-147.2 13.7,-293.5 19.9,-440.1 7.3,-172 14,-344.5 -5.6,-516.7 -5.9,-52 -9,-104.5 -15.6,-156.5 -17,-0.1 -33.9,-0.2 -50.8,-0.4" /><path
             id="path48"
             style="fill:#fbc6a5;fill-opacity:1;fill-rule:nonzero;stroke:none"
             d="m 11115.2,12266.8 c -2.1,-239.9 -10.1,-479.6 -32.9,-718.5 -16,-166.6 -66.6,-324.9 -121,-482 -28.2,-81.4 -58.4,-162.2 -96.1,-239.8 -136,-280 -353,-454 -662.6,-509.6 -232.48,-41.8 -451.87,-10.8 -658.6,105.2 -67.97,38.2 -133.66,79.5 -196.56,125.7 -172.86,127.1 -278.28,294.2 -312.71,507.1 -48.05,297 -99.72,593.6 -109.31,895.1 -9.42,296.3 23.22,587.1 107.6,872.8 56.81,192.5 175.8,303.9 372.77,337.8 217.81,37.4 435.56,72.4 657.31,78.1 122.2,3.2 241.6,31.4 361.8,52.1 91.4,15.8 183.1,23.2 276.3,9.9 151.6,-21.5 256.6,-100.5 309.9,-243.8 41.8,-112.7 68.5,-229.6 82.8,-349 17.5,-146.5 24.7,-293.6 21.3,-441.1" /><path
             id="path50"
             style="fill:#1f1612;fill-opacity:1;fill-rule:nonzero;stroke:none"
             d="m 11146.3,12044.6 c -3.2,88.1 18.6,175.2 10.7,263.7 -11.4,127.2 -12.4,255 -22.8,382.4 -10.8,133 -39.5,260.8 -82.5,385.8 -46.4,134.9 -141.3,222.3 -279.2,257.6 -96.6,24.7 -195.6,21.7 -293.6,4.9 -121.5,-20.9 -242.5,-45.2 -364.4,-63.9 -45.3,-6.9 -92.6,-4.4 -138.72,-1.9 -116.15,6.5 -230.18,-12.7 -344.07,-28.6 -90.88,-12.7 -182.42,-24.2 -271.55,-47.9 -52.97,-14.1 -103.11,-35.6 -152.61,-58.6 -83.12,-38.7 -134.13,-109.3 -168.68,-188.6 -60.42,-138.8 -94.24,-286 -119.69,-435.2 -26.51,-155.4 -37.43,-311.7 -37.02,-469.1 0.03,-7.7 2.35,-16.1 -8.17,-26.2 -25.99,39.4 -36.67,84.8 -51.14,126.5 -61.34,176.9 -143.91,344.7 -216.82,516.6 -70.89,167.2 -103,341.3 -88.84,522.4 6.04,77.2 29.79,151.9 51.29,226.2 36.69,127 77.05,252.8 112.55,380.1 30.53,109.4 106.95,173.7 206.05,213.5 103.17,41.4 209.33,75.4 313.54,114.3 86.57,32.3 171.87,67.9 254.23,110.1 137.13,70.3 280.78,123.7 432.36,150.7 93.89,16.7 187.99,8.6 278.09,-29.6 104.3,-44.2 207.6,-91.4 315.9,-125.5 92.1,-29 187,-44 282.9,-55.4 84.8,-10.2 170.5,-18.3 249.1,-59.2 69.5,-36.2 123,-85.8 157.4,-156.3 14.7,-30.3 31.8,-59.3 46.6,-89.5 43.6,-89 123.2,-141 199.7,-196.5 106,-77.1 163,-182.5 183.2,-310.9 7.6,-47.9 11.8,-95.4 12,-143.8 1,-188 -49.1,-364 -120.8,-535.7 -50.4,-120.7 -117.4,-231.2 -185.7,-342.4 -56.6,-92 -115.9,-185.1 -150.3,-289.7 l -4.4,-4.1 -4.6,3.8" /><path
             id="path52"
             style="fill:#fbc6a5;fill-opacity:1;fill-rule:nonzero;stroke:none"
             d="m 9133.63,10693.3 c 167.3,-202.5 379.62,-336.7 631.53,-406.2 222.98,-61.5 443.04,-34 656.54,44.7 145.5,53.7 260.8,151.7 356.2,273.3 84,107.2 140.8,228.8 190,354.5 31.2,-3 14.8,-23.7 14.2,-38.5 -7.7,-182.9 -16.9,-365.8 -22.5,-548.8 -3.3,-111 19.2,-217.8 70.7,-317 50.6,-97.5 129.5,-164.3 230.1,-206.5 11.6,-4.8 23.6,-8.8 35.5,-13 106.7,-37.4 105.8,-36.9 53.1,-141.2 -100.6,-199.3 -245.4,-355.2 -443,-461.7 -114.8,-61.8 -227.9,-126.6 -353.6,-165.3 -185.2,-57 -368.7,-43 -554.49,1.1 -206.06,49 -402.08,124.5 -590.52,217.7 -224.32,111 -396.67,281.9 -525.15,496.6 -27.87,46.5 -27.63,48.5 20.64,76.2 149.98,86.2 217.27,220.4 235.32,387.8 15.3,141.9 -1.83,281.4 -17.6,421.5 -3.35,12.3 -11.38,27.1 13.03,24.8" /><path
             id="path54"
             style="fill:#fbc6a5;fill-opacity:1;fill-rule:nonzero;stroke:none"
             d="m 11474.3,12024.1 c -2.8,-118.7 -25.5,-233.2 -75.8,-341.3 -37,-79.4 -88.3,-147.5 -162.8,-196 -25.1,-16.3 -51.2,-29.7 -82.4,-24.5 -23.2,3.8 -40.2,14.3 -35.2,41.8 25,136.4 2.4,276.9 37.7,412.9 34.2,131.8 92.4,251.4 166.2,364.7 15.2,23.3 32.7,23.2 53.2,10 25.6,-16.4 42.1,-41.1 56.4,-66.8 34.6,-62.3 46,-130 42.7,-200.8" /><path
             id="path56"
             style="fill:#fbc6a5;fill-opacity:1;fill-rule:nonzero;stroke:none"
             d="m 8604.1,12090.9 c -1.44,36.4 3.74,71.8 14.34,106.1 10.1,32.7 27.26,61.4 55.37,82.3 36.94,27.5 46.16,26 62.85,-16.4 48.48,-123 95.87,-246.4 143.33,-369.8 7.56,-19.7 10.62,-40.3 11.45,-61.7 4.53,-115.6 19.03,-230.2 35.63,-344.6 5.31,-36.6 1.61,-41.4 -34.7,-37.4 -61.46,6.6 -111.23,35.4 -149.44,84 -17.03,21.7 -30.19,45.7 -39.09,71.6 -54.05,157.8 -82.7,320.7 -99.74,485.9" /><path
             id="path58"
             style="fill:#796c63;fill-opacity:1;fill-rule:nonzero;stroke:none"
             d="m 10982.1,10921.1 c -8.1,11.6 3.4,30.4 -14.2,38.5 -0.7,17.6 5.7,31.4 21.8,42.2 5.4,-29 6.1,-55.5 -7.6,-80.7" /><path
             id="path60"
             style="fill:#252623;fill-opacity:1;fill-rule:nonzero;stroke:none"
             d="m 8831.51,9861.4 c -0.06,4.1 0,8.2 0.19,12.3 9.81,13.3 22.74,20.6 44.97,21.9 -8.79,-24 -30.62,-24.8 -45.16,-34.2" /><path
             id="path62"
             style="fill:#857a68;fill-opacity:1;fill-rule:nonzero;stroke:none"
             d="m 9133.63,10693.3 c -10.93,-4.8 -8,-16.9 -13.03,-24.8 -3.43,7.2 -8.6,14.1 -9.82,21.6 -1.37,8.5 -7.88,22.3 5.61,24.4 10.57,1.6 14.73,-11.2 17.24,-21.2" /><path
             id="path64"
             style="fill:#4c5254;fill-opacity:1;fill-rule:nonzero;stroke:none"
             d="m 11146.3,12044.6 c 3,0.5 6,0.6 9,0.3 -1.1,-6.3 5.7,-15.5 -6.6,-17.5 -0.8,5.8 -1.6,11.5 -2.4,17.2" /><path
             id="path66"
             style="fill:#222423;fill-opacity:1;fill-rule:nonzero;stroke:none"
             d="m 8885.94,11991.9 c -0.13,-1.4 0.25,-3.5 -0.5,-4 -1.26,-0.9 -3.61,-1.7 -4.84,-1.1 -5.18,2.5 -4.94,5.2 0.6,6.7 1.32,0.4 3.15,-1 4.74,-1.6" /></g></g></g></g></svg>